<svg viewBox="0 0 147 71" fill="currentColor" xmlns="http://www.w3.org/2000/svg"><path d="M.611 26.06a1.5 1.5 0 0 1 0-2.12l9.546-9.547a1.5 1.5 0 0 1 2.121 2.122L3.793 25l8.485 8.485a1.5 1.5 0 0 1-2.121 2.122L.611 26.06ZM55.671 25v-1.5V25Zm-9 0v1.5V25Zm-45-1.5h45v3h-45v-3Zm45 0h9v3h-9v-3Zm9 0h79.001v3h-79v-3Zm87.501-8.5V0h3v15h-3Zm-8.5 8.5a8.5 8.5 0 0 0 8.5-8.5h3c0 6.351-5.149 11.5-11.5 11.5v-3Z"/><path d="M.611 60.06a1.5 1.5 0 0 1 0-2.12l9.546-9.547a1.5 1.5 0 0 1 2.121 2.122L3.793 59l8.485 8.485a1.5 1.5 0 0 1-2.121 2.122L.611 60.06ZM55.671 59v-1.5V59Zm-9 0v1.5V59Zm-45-1.5h45v3h-45v-3Zm45 0h9v3h-9v-3Zm9 0h79.001v3h-79v-3Zm87.501-8.5V0h3v49h-3Zm-8.5 8.5a8.5 8.5 0 0 0 8.5-8.5h3c0 6.351-5.149 11.5-11.5 11.5v-3Z"/></svg>