<svg viewBox="0 0 147 71" fill="currentColor" xmlns="http://www.w3.org/2000/svg"><path d="M.611 44.94a1.5 1.5 0 0 0 0 2.12l9.546 9.547a1.5 1.5 0 0 0 2.121-2.122L3.793 46l8.485-8.485a1.5 1.5 0 0 0-2.121-2.122L.611 44.94ZM55.671 46v1.5V46Zm-9 0v-1.5V46Zm-45 1.5h45v-3h-45v3Zm45 0h9v-3h-9v3Zm9 0h79.001v-3h-79v3Zm87.501 8.5v15h3V56h-3Zm-8.5-8.5a8.5 8.5 0 0 1 8.5 8.5h3c0-6.351-5.149-11.5-11.5-11.5v3Z"/><path d="M.611 10.94a1.5 1.5 0 0 0 0 2.12l9.546 9.547a1.5 1.5 0 0 0 2.121-2.122L3.793 12l8.485-8.485a1.5 1.5 0 0 0-2.121-2.122L.611 10.94ZM55.671 12v1.5V12Zm-9 0v-1.5V12Zm-45 1.5h45v-3h-45v3Zm45 0h9v-3h-9v3Zm9 0h79.001v-3h-79v3Zm87.501 8.5v49h3V22h-3Zm-8.5-8.5a8.5 8.5 0 0 1 8.5 8.5h3c0-6.351-5.149-11.5-11.5-11.5v3Z"/></svg>