<svg width="33" height="32" fill="none" xmlns="http://www.w3.org/2000/svg"><path d="M21.52 31.016a.624.624 0 0 1-.517.984H11.66a.625.625 0 0 1-.516-.984 6.25 6.25 0 0 1 10.375 0Zm10.718.593A1.281 1.281 0 0 1 31.3 32h-6.125a.64.64 0 0 1-.593-.422 8.75 8.75 0 0 0-16.5 0 .64.64 0 0 1-.594.422H1.363a1.25 1.25 0 0 1-.938-.39 1.235 1.235 0 0 1-.172-1.485C.3 30.047 5.082 21.531 5.082 12A11.265 11.265 0 0 1 16.41.75c6.187.047 11.156 5.14 11.172 11.328.03 9.5 4.78 17.969 4.828 18.047a1.234 1.234 0 0 1-.172 1.484ZM10.082 13.875a1.875 1.875 0 1 0 3.749 0 1.875 1.875 0 0 0-3.75 0Zm12.375 5.063a1.281 1.281 0 0 0-1.688-.563l-4.437 2.234-4.438-2.234a1.257 1.257 0 0 0-1.125 2.25l5 2.5a1.329 1.329 0 0 0 1.125 0l5-2.5a1.281 1.281 0 0 0 .563-1.688Zm.125-5.063a1.875 1.875 0 1 0-3.75 0 1.875 1.875 0 0 0 3.75 0Z" fill="#fff"/></svg>