<svg width="48" height="48" fill="none" xmlns="http://www.w3.org/2000/svg"><path d="M24 30a6 6 0 1 0 0-12 6 6 0 0 0 0 12ZM18 1.5a1.5 1.5 0 1 0-3 0V6h-1.5A7.5 7.5 0 0 0 6 13.5V15H1.5a1.5 1.5 0 1 0 0 3H6v4.5H1.5a1.5 1.5 0 1 0 0 3H6V30H1.5a1.5 1.5 0 1 0 0 3H6v1.5a7.5 7.5 0 0 0 7.5 7.5H15v4.5a1.5 1.5 0 1 0 3 0V42h4.5v4.5a1.5 1.5 0 1 0 3 0V42H30v4.5a1.5 1.5 0 1 0 3 0V42h1.5a7.5 7.5 0 0 0 7.5-7.5V33h4.5a1.5 1.5 0 1 0 0-3H42v-4.5h4.5a1.5 1.5 0 1 0 0-3H42V18h4.5a1.5 1.5 0 1 0 0-3H42v-1.5A7.5 7.5 0 0 0 34.5 6H33V1.5a1.5 1.5 0 1 0-3 0V6h-4.5V1.5a1.5 1.5 0 1 0-3 0V6H18V1.5ZM33 24a9 9 0 1 1-18 0 9 9 0 0 1 18 0Z" fill="#fff"/></svg>