<svg width="137" height="80" fill="none" xmlns="http://www.w3.org/2000/svg"><path d="M1.24 71.033a1 1 0 0 0 0 1.414l6.363 6.364a1 1 0 1 0 1.414-1.414L3.361 71.74l5.656-5.657a1 1 0 1 0-1.414-1.414L1.24 71.033ZM129.76.293a1 1 0 0 0-1.414 0l-6.364 6.364a1 1 0 1 0 1.414 1.414l5.657-5.657 5.657 5.657a1 1 0 1 0 1.414-1.414L129.761.293ZM1.946 72.74H60.2v-2H1.946v2Zm58.253 0c12.425 0 29.864-3.917 44.221-14.852C118.822 46.92 130.054 28.938 130.054 1h-2c0 27.322-10.946 44.711-24.846 55.297C89.263 66.917 72.275 70.74 60.199 70.74v2Z" fill="url(#a)"/><defs><linearGradient id="a" x1="32.361" y1="17.451" x2="97.469" y2="68.782" gradientUnits="userSpaceOnUse"><stop stop-color="#3DDC97"/><stop offset="1" stop-color="#66C49C"/></linearGradient></defs></svg>