<svg width="22" height="22" fill="none" xmlns="http://www.w3.org/2000/svg"><path d="M9.152 9.263c-.599 0-1.071.525-1.071 1.166 0 .64.483 1.165 1.07 1.165.6 0 1.072-.525 1.072-1.165.01-.64-.473-1.166-1.071-1.166Zm3.832 0c-.598 0-1.07.525-1.07 1.166 0 .64.482 1.165 1.07 1.165.599 0 1.071-.525 1.071-1.165s-.472-1.166-1.07-1.166Z" fill="#fff"/><path d="M18.087.454H4.017a2.158 2.158 0 0 0-2.152 2.163v14.196c0 1.197.966 2.163 2.152 2.163h11.907l-.556-1.942 1.344 1.25 1.27 1.175 2.258 1.995V2.617A2.158 2.158 0 0 0 18.087.454Zm-4.053 13.713s-.378-.451-.693-.85c1.376-.389 1.9-1.25 1.9-1.25-.43.284-.84.483-1.207.62a6.91 6.91 0 0 1-1.522.451 7.355 7.355 0 0 1-2.72-.01 8.814 8.814 0 0 1-1.543-.452 6.153 6.153 0 0 1-.767-.357c-.031-.02-.063-.031-.094-.052a.145.145 0 0 1-.042-.032c-.19-.105-.294-.178-.294-.178s.504.84 1.837 1.239c-.315.399-.703.871-.703.871-2.32-.073-3.203-1.596-3.203-1.596 0-3.38 1.512-6.121 1.512-6.121 1.512-1.134 2.95-1.103 2.95-1.103l.106.126C7.66 6.02 6.789 6.85 6.789 6.85s.231-.126.62-.305c1.123-.493 2.016-.63 2.383-.661.063-.01.116-.021.179-.021a8.56 8.56 0 0 1 5.281.987s-.83-.788-2.614-1.334l.147-.168s1.438-.031 2.95 1.103c0 0 1.512 2.74 1.512 6.121 0 0-.892 1.523-3.213 1.596Z" fill="#fff"/></svg>