<svg xmlns="http://www.w3.org/2000/svg" viewBox="0 0 130 30"><g fill="none" fill-rule="evenodd"><path fill="#FCFAFA" d="M36.3 5.858h7.938c4.645 0 7.746 3.204 7.746 7.475 0 4.272-3.101 7.475-7.746 7.475h-3.937v8.415h-4V5.858zm11.612 7.475c0-2.2-1.435-3.666-4.169-3.666h-3.442v7.34h3.442c2.734 0 4.169-1.467 4.169-3.674zm22.624 7.977c0 4.638-3.737 8.311-8.44 8.311-4.709 0-8.446-3.673-8.446-8.31 0-4.671 3.737-8.312 8.446-8.312 4.703 0 8.44 3.64 8.44 8.311zm-4.072 0c0-2.47-1.666-4.574-4.368-4.574-2.702 0-4.374 2.104-4.374 4.574 0 2.47 1.672 4.574 4.374 4.574s4.368-2.104 4.368-4.574zm5.745-7.906h3.1V8.695h4.008v4.71h4.773v3.602h-4.773v6.375c0 1.936.997 2.502 2.065 2.502.9 0 1.673-.566 1.673-.566l1.466 3.268s-1.499 1.035-3.802 1.035c-3.075 0-5.41-2.238-5.41-5.609v-7.005h-3.1v-3.603zm17.787-7.745a2.625 2.625 0 0 1 2.637 2.637 2.625 2.625 0 0 1-2.637 2.638 2.625 2.625 0 0 1-2.638-2.638 2.625 2.625 0 0 1 2.638-2.637zm-2 7.745h4v15.819h-4V13.404zm24.457 7.906c0 4.638-3.737 8.311-8.44 8.311-4.709 0-8.446-3.673-8.446-8.31 0-4.671 3.737-8.312 8.446-8.312 4.703 0 8.44 3.64 8.44 8.311zm-4.072 0c0-2.47-1.666-4.574-4.368-4.574-2.708 0-4.374 2.104-4.374 4.574 0 2.47 1.666 4.574 4.374 4.574 2.702 0 4.368-2.104 4.368-4.574zm21.293-2.335v10.248h-4.008v-9.244c0-2.271-1.396-3.243-3.133-3.243-2.071 0-3.139 2.04-3.139 2.04v10.447h-4.001V13.404h3.737v2.303S120.533 13 123.865 13c3.075 0 5.809 2.174 5.809 5.976z"/><path fill="#724CF9" d="M11.701 29.316C5.25 29.316 0 24.066 0 17.615v-3.12h4.06v3.12c0 4.213 3.428 7.642 7.641 7.642 4.22 0 7.65-3.429 7.65-7.642v-3.12h4.058v3.12c0 6.452-5.249 11.701-11.708 11.701z"/><path fill="#FA198B" d="M11.753 23.43a5.914 5.914 0 0 1-5.906-5.906h4.06c0 1.017.83 1.84 1.846 1.84a1.845 1.845 0 0 0 1.846-1.84h4.06a5.914 5.914 0 0 1-5.906 5.906z"/><path fill="#724CF9" d="M4.046 14.552v-4.059c1.634 0 3.095-.463 4.105-1.306 1.003-.836 1.511-1.975 1.511-3.39h4.06v.187c0 3.313 2.894 4.496 5.61 4.496v4.06c-2.587 0-4.954-.753-6.672-2.123a8.141 8.141 0 0 1-1.023-.972c-.27.303-.566.592-.881.856-1.743 1.454-4.123 2.251-6.71 2.251z"/><path fill="#FA198B" d="M11.728 0a2.147 2.147 0 0 1 1.526.632 2.146 2.146 0 0 1 .632 1.526c0 .286-.054.562-.164.826-.11.265-.265.498-.468.7a2.138 2.138 0 0 1-.7.468c-.264.11-.54.164-.826.164-.286 0-.561-.054-.826-.164a2.138 2.138 0 0 1-.7-.468 2.138 2.138 0 0 1-.468-.7 2.138 2.138 0 0 1-.164-.826 2.15 2.15 0 0 1 .632-1.526A2.151 2.151 0 0 1 11.728 0z"/></g></svg>