<svg width="26" height="33" fill="none" xmlns="http://www.w3.org/2000/svg"><path fill-rule="evenodd" clip-rule="evenodd" d="M4.433 16.321v3.402a8.343 8.343 0 0 0 16.686 0V16.32h4.433v3.402a12.776 12.776 0 0 1-25.552 0V16.32h4.433Z" fill="url(#a)"/><path fill-rule="evenodd" clip-rule="evenodd" d="M10.817 19.626a2.012 2.012 0 1 0 4.025 0h4.433a6.446 6.446 0 0 1-12.891 0h4.433Z" fill="url(#b)"/><path fill-rule="evenodd" clip-rule="evenodd" d="M8.9 10.527c1.002-.837 1.646-2.048 1.646-3.698h4.433v.206c0 1.64.635 2.778 1.61 3.556 1.03.822 2.59 1.35 4.515 1.35v4.433c-2.682 0-5.291-.73-7.28-2.318a8.822 8.822 0 0 1-1.117-1.06c-.297.333-.62.645-.966.934-1.977 1.65-4.593 2.46-7.318 2.46v-4.434c1.881 0 3.435-.56 4.476-1.429Z" fill="url(#c)"/><path d="M15.159 2.857a2.356 2.356 0 1 1-4.713 0 2.356 2.356 0 0 1 4.713 0Z" fill="url(#d)"/><defs><linearGradient id="a" x1="6.114" y1="20.084" x2="20.452" y2="30.02" gradientUnits="userSpaceOnUse"><stop stop-color="#724CF9"/><stop offset="1" stop-color="#8E6EFD"/></linearGradient><linearGradient id="b" x1="9.469" y1="21.125" x2="15.518" y2="26.434" gradientUnits="userSpaceOnUse"><stop stop-color="#FA198B"/><stop offset="1" stop-color="#E373AC"/></linearGradient><linearGradient id="c" x1="8.414" y1="9.052" x2="17.149" y2="15.74" gradientUnits="userSpaceOnUse"><stop stop-color="#724CF9"/><stop offset="1" stop-color="#8E6EFD"/></linearGradient><linearGradient id="d" x1="11.574" y1="1.597" x2="14.856" y2="3.037" gradientUnits="userSpaceOnUse"><stop stop-color="#FA198B"/><stop offset="1" stop-color="#E373AC"/></linearGradient></defs></svg>