<svg fill="currentColor" width="77.5" height="140.092" xmlns="http://www.w3.org/2000/svg"><path d="M77.06 43.985a1.5 1.5 0 0 1 0 2.122l-9.545 9.546a1.5 1.5 0 1 1-2.122-2.122l8.486-8.485-8.486-8.485a1.5 1.5 0 1 1 2.122-2.122zm-25.272 1.06v1.5zm4.035 0v-1.5zm-43.941 25h1.5v1.5h-1.5zm-5.941 0v-1.5zm15.941-25v1.5zM76 46.546H55.823v-3H76zm-20.177 0h-4.035v-3h4.035zm-4.035 0H21.882v-3h29.906zm-38.406 8.5v15h-3v-15Zm-1.5 16.5H5.941v-3h5.941zm-5.941 0H0v-3h5.941zm15.941-25a8.5 8.5 0 0 0-8.5 8.5h-3c0-6.35 5.149-11.5 11.5-11.5z"/><path d="M77.06 9.985a1.5 1.5 0 0 1 0 2.122l-9.545 9.546a1.5 1.5 0 1 1-2.122-2.122l8.486-8.485-8.486-8.485A1.5 1.5 0 1 1 67.515.439zm-25.228 1.06v1.5zm4.028 0v-1.5Zm20.14 1.5H55.86v-3H76zm-20.14 0h-4.028v-3h4.028zm-4.028 0H22v-3h29.832zm-38.332 8.5v49h-3v-49Zm8.5-8.5a8.5 8.5 0 0 0-8.5 8.5h-3c0-6.35 5.149-11.5 11.5-11.5zM77.06 96.107a1.5 1.5 0 0 0 0-2.122l-9.545-9.546a1.5 1.5 0 1 0-2.122 2.122l8.486 8.485-8.486 8.485a1.5 1.5 0 0 0 2.122 2.122zm-25.228-1.061v-1.5zm4.028 0v1.5zm-33.86 0v-1.5zm54-1.5H55.86v3H76zm-20.14 0h-4.028v3h4.028zm-4.028 0H22v3h29.832zm-38.332-8.5v-15h-3v15zm8.5 8.5a8.5 8.5 0 0 1-8.5-8.5h-3c0 6.351 5.149 11.5 11.5 11.5z"/><path d="M77.06 130.107a1.501 1.501 0 0 0 0-2.122l-9.545-9.546a1.501 1.501 0 0 0-2.122 2.122l8.486 8.485-8.486 8.485a1.5 1.5 0 0 0 2.122 2.122zm-25.228-1.061v-1.5zm4.028 0v1.5zm20.14-1.5H55.86v3H76zm-20.14 0h-4.028v3h4.028zm-4.028 0H22v3h29.832zm-38.332-8.5v-49h-3v49zm8.5 8.5a8.5 8.5 0 0 1-8.5-8.5h-3c0 6.35 5.149 11.5 11.5 11.5z"/></svg>