<svg  class="w-full" viewBox="0 0 140.092 77.5" fill="currentColor" xmlns="http://www.w3.org/2000/svg"><path d="M96.106 77.06a1.5 1.5 0 0 1-2.12 0l-9.547-9.545a1.5 1.5 0 1 1 2.121-2.122l8.486 8.486 8.485-8.486a1.5 1.5 0 1 1 2.121 2.122zm-1.06-25.272h-1.5zm0 4.035h1.5zm-25-43.941v1.5h-1.5v-1.5zm0-5.941h1.5zm25 15.941h-1.5zM93.546 76V55.823h3V76zm0-20.177v-4.035h3v4.035zm0-4.035V21.882h3v29.906zm-8.5-38.406h-15v-3h15zm-16.5-1.5V5.941h3v5.941zm0-5.941V0h3v5.941zm25 15.941a8.5 8.5 0 0 0-8.5-8.5v-3c6.351 0 11.5 5.149 11.5 11.5z"/><path d="M130.106 77.06a1.5 1.5 0 0 1-2.12 0l-9.547-9.545a1.5 1.5 0 1 1 2.121-2.122l8.486 8.486 8.485-8.486a1.5 1.5 0 1 1 2.121 2.122zm-1.06-25.228h-1.5zm0 4.028h1.5zm-1.5 20.14V55.86h3V76zm0-20.14v-4.028h3v4.028zm0-4.028V22h3v29.832zm-8.5-38.332h-49v-3h49zm8.5 8.5a8.5 8.5 0 0 0-8.5-8.5v-3c6.351 0 11.5 5.149 11.5 11.5zM43.985 77.06a1.5 1.5 0 0 0 2.121 0l9.546-9.545a1.5 1.5 0 1 0-2.12-2.122l-8.486 8.486-8.485-8.486a1.5 1.5 0 0 0-2.122 2.122zm1.06-25.228h1.5zm0 4.028h-1.5zm0-33.86h1.5zm1.5 54V55.86h-3V76zm0-20.14v-4.028h-3v4.028zm0-4.028V22h-3v29.832zm8.5-38.332h15v-3h-15zm-8.5 8.5a8.5 8.5 0 0 1 8.5-8.5v-3c-6.35 0-11.5 5.149-11.5 11.5z"/><path d="M9.985 77.06a1.501 1.501 0 0 0 2.122 0l9.546-9.545a1.501 1.501 0 0 0-2.122-2.122l-8.485 8.486-8.485-8.486a1.5 1.5 0 0 0-2.122 2.122zm1.06-25.228h1.5zm0 4.028h-1.5Zm1.5 20.14V55.86h-3V76zm0-20.14v-4.028h-3v4.028zm0-4.028V22h-3v29.832zm8.5-38.332h49v-3h-49Zm-8.5 8.5a8.5 8.5 0 0 1 8.5-8.5v-3c-6.35 0-11.5 5.149-11.5 11.5z"/></svg>
