<svg width="145" height="152" fill="none" xmlns="http://www.w3.org/2000/svg"><path fill-rule="evenodd" clip-rule="evenodd" d="M29.256 26.075c-2.353 1.283-3.506 2.891-3.506 4.425 0 1.534 1.153 3.142 3.506 4.425C31.571 36.188 34.837 37 38.5 37c3.663 0 6.929-.812 9.244-2.075 2.353-1.283 3.506-2.891 3.506-4.425 0-1.534-1.153-3.142-3.506-4.425C45.429 24.812 42.163 24 38.5 24c-3.663 0-6.929.812-9.244 2.075Zm-.958-1.756C30.96 22.867 34.568 22 38.5 22c3.931 0 7.54.867 10.202 2.319 2.623 1.431 4.548 3.572 4.548 6.181s-1.925 4.75-4.548 6.181C46.04 38.133 42.432 39 38.5 39c-3.931 0-7.54-.867-10.202-2.319-2.623-1.431-4.548-3.572-4.548-6.181s1.925-4.75 4.548-6.181Z" fill="url(#a)"/><path fill-rule="evenodd" clip-rule="evenodd" d="M51.25 33.313C49.21 36.061 44.27 38 38.5 38s-10.71-1.939-12.75-4.687V37c0 1.533 1.153 3.141 3.506 4.425 2.315 1.263 5.582 2.075 9.244 2.075s6.929-.812 9.244-2.075C50.097 40.14 51.25 38.533 51.25 37V33.313Zm.88-3.806C51.24 25.834 45.478 23 38.5 23c-6.977 0-12.74 2.834-13.63 6.507a1 1 0 0 0-1.12.993v22c0 2.608 1.925 4.75 4.548 6.18C30.96 60.134 34.568 61 38.5 61c3.931 0 7.54-.867 10.202-2.32 2.623-1.43 4.548-3.572 4.548-6.18v-22a1 1 0 0 0-1.12-.993ZM25.75 52.5V41.327c.715.706 1.584 1.328 2.548 1.854C30.96 44.633 34.568 45.5 38.5 45.5c3.931 0 7.54-.867 10.202-2.32.964-.525 1.834-1.147 2.548-1.853V52.5c0 1.533-1.153 3.141-3.506 4.425C45.429 58.188 42.162 59 38.5 59s-6.929-.812-9.244-2.075c-2.353-1.284-3.506-2.892-3.506-4.425Z" fill="url(#b)"/><path fill-rule="evenodd" clip-rule="evenodd" d="M96.298 24.319C98.96 22.867 102.57 22 106.5 22s7.54.867 10.202 2.319c2.623 1.431 4.548 3.572 4.548 6.181v22c0 2.608-1.925 4.75-4.548 6.18C114.04 60.134 110.431 61 106.5 61s-7.54-.867-10.202-2.32c-2.623-1.43-4.548-3.572-4.548-6.18v-22c0-2.609 1.925-4.75 4.548-6.181ZM93.75 34.828V45c0 1.533 1.153 3.141 3.506 4.425 2.315 1.263 5.582 2.075 9.244 2.075s6.929-.812 9.244-2.075c2.353-1.284 3.506-2.892 3.506-4.425V34.828c-.715.705-1.584 1.327-2.548 1.853C114.04 38.133 110.431 39 106.5 39s-7.54-.867-10.202-2.319c-.964-.526-1.834-1.148-2.548-1.853Zm0 17.672v-3.173c.715.706 1.584 1.328 2.548 1.854C98.96 52.633 102.57 53.5 106.5 53.5s7.54-.867 10.202-2.32c.964-.525 1.833-1.147 2.548-1.853V52.5c0 1.533-1.153 3.141-3.506 4.425C113.429 58.188 110.162 59 106.5 59s-6.929-.812-9.244-2.075c-2.353-1.284-3.506-2.892-3.506-4.425Z" fill="url(#c)"/><path fill-rule="evenodd" clip-rule="evenodd" d="M28.298 92.319C30.96 90.867 34.568 90 38.5 90c3.931 0 7.54.867 10.202 2.319 2.623 1.431 4.548 3.572 4.548 6.181v22c0 2.608-1.925 4.749-4.548 6.181C46.04 128.133 42.432 129 38.5 129c-3.931 0-7.54-.867-10.202-2.319-2.623-1.432-4.548-3.573-4.548-6.181v-22c0-2.609 1.925-4.75 4.548-6.181Zm-2.548 10.509V115c0 1.533 1.153 3.141 3.506 4.425 2.315 1.263 5.582 2.075 9.244 2.075s6.929-.812 9.244-2.075c2.353-1.284 3.506-2.892 3.506-4.425v-12.172c-.715.705-1.584 1.327-2.548 1.853C46.04 106.133 42.432 107 38.5 107c-3.931 0-7.54-.867-10.202-2.319-.964-.526-1.833-1.148-2.548-1.853Zm0 17.672v-1.173c.715.706 1.584 1.328 2.548 1.854 2.662 1.452 6.27 2.319 10.202 2.319 3.931 0 7.54-.867 10.202-2.319.964-.526 1.834-1.148 2.548-1.854v1.173c0 1.533-1.153 3.141-3.506 4.425C45.429 126.188 42.162 127 38.5 127s-6.929-.812-9.244-2.075c-2.353-1.284-3.506-2.892-3.506-4.425Z" fill="url(#d)"/><path fill-rule="evenodd" clip-rule="evenodd" d="M96.298 92.319C98.96 90.867 102.57 90 106.5 90s7.54.867 10.202 2.319c2.623 1.431 4.548 3.572 4.548 6.181v22c0 2.608-1.925 4.749-4.548 6.181-2.662 1.452-6.271 2.319-10.202 2.319s-7.54-.867-10.202-2.319c-2.623-1.432-4.548-3.573-4.548-6.181v-22c0-2.609 1.925-4.75 4.548-6.181Zm-2.548 10.509V109c0 1.533 1.153 3.141 3.506 4.425 2.315 1.263 5.582 2.075 9.244 2.075s6.929-.812 9.244-2.075c2.353-1.284 3.506-2.892 3.506-4.425v-6.172c-.715.705-1.584 1.327-2.548 1.853-2.662 1.452-6.271 2.319-10.202 2.319s-7.54-.867-10.202-2.319c-.964-.526-1.834-1.148-2.548-1.853Zm0 17.672v-7.173c.715.706 1.584 1.328 2.548 1.854 2.662 1.452 6.271 2.319 10.202 2.319s7.54-.867 10.202-2.319c.964-.526 1.833-1.148 2.548-1.854v7.173c0 1.533-1.153 3.141-3.506 4.425-2.315 1.263-5.582 2.075-9.244 2.075s-6.929-.812-9.244-2.075c-2.353-1.284-3.506-2.892-3.506-4.425Z" fill="url(#e)"/><defs><linearGradient id="a" x1="30.809" y1="25.953" x2="46.32" y2="37.764" gradientUnits="userSpaceOnUse"><stop stop-color="#fff"/><stop offset="1" stop-color="#EEEAFD"/></linearGradient><linearGradient id="b" x1="30.809" y1="31.837" x2="52.764" y2="39.316" gradientUnits="userSpaceOnUse"><stop stop-color="#fff"/><stop offset="1" stop-color="#EEEAFD"/></linearGradient><linearGradient id="c" x1="98.809" y1="31.07" x2="120.881" y2="38.395" gradientUnits="userSpaceOnUse"><stop stop-color="#fff"/><stop offset="1" stop-color="#EEEAFD"/></linearGradient><linearGradient id="d" x1="30.809" y1="99.07" x2="52.881" y2="106.395" gradientUnits="userSpaceOnUse"><stop stop-color="#fff"/><stop offset="1" stop-color="#EEEAFD"/></linearGradient><linearGradient id="e" x1="98.809" y1="99.07" x2="120.881" y2="106.395" gradientUnits="userSpaceOnUse"><stop stop-color="#fff"/><stop offset="1" stop-color="#EEEAFD"/></linearGradient></defs></svg>