<svg width="61" height="60" fill="none" xmlns="http://www.w3.org/2000/svg"><path d="m25.96 40.86-1.236-1.644c.008-.15 0-.307 0-.424l1.236-1.652a.648.648 0 0 0 .108-.572 9.529 9.529 0 0 0-.905-2.192.68.68 0 0 0-.481-.332l-2.034-.291-.307-.307-.29-2.034a.698.698 0 0 0-.325-.482 9.757 9.757 0 0 0-2.2-.905.649.649 0 0 0-.573.108l-1.643 1.229h-.432l-1.644-1.229a.646.646 0 0 0-.573-.108 9.535 9.535 0 0 0-2.192.905.682.682 0 0 0-.332.482l-.29 2.034-.307.307-2.034.29a.68.68 0 0 0-.482.333 9.53 9.53 0 0 0-.905 2.192.647.647 0 0 0 .108.572l1.237 1.644v.424L8.227 40.86a.648.648 0 0 0-.108.572 9.53 9.53 0 0 0 .905 2.192.68.68 0 0 0 .482.332l2.034.291.307.307.29 2.034a.68.68 0 0 0 .332.482c.69.391 1.427.695 2.192.905a.64.64 0 0 0 .573-.108l1.644-1.229h.432l1.643 1.229a.646.646 0 0 0 .573.108 9.383 9.383 0 0 0 2.192-.905.682.682 0 0 0 .332-.482l.29-2.042c.1-.1.217-.208.3-.299l2.042-.29a.68.68 0 0 0 .482-.333c.391-.69.695-1.426.904-2.192a.647.647 0 0 0-.108-.572Zm-8.866 1.793a3.653 3.653 0 1 1 0-7.306 3.653 3.653 0 0 1 0 7.306ZM50.909 26.083 49.19 23.8c.011-.208 0-.427 0-.588l1.718-2.295a.9.9 0 0 0 .15-.796 13.24 13.24 0 0 0-1.257-3.044.946.946 0 0 0-.67-.46l-2.824-.405-.427-.426-.403-2.825a.968.968 0 0 0-.45-.669 13.548 13.548 0 0 0-3.056-1.257.898.898 0 0 0-.795.15l-2.283 1.707h-.6l-2.283-1.707a.898.898 0 0 0-.796-.15c-1.063.29-2.086.713-3.044 1.257a.945.945 0 0 0-.461.669l-.404 2.825-.426.426-2.825.404a.946.946 0 0 0-.67.461 13.24 13.24 0 0 0-1.256 3.044.9.9 0 0 0 .15.796l1.718 2.283v.588l-1.718 2.295a.9.9 0 0 0-.15.796 13.24 13.24 0 0 0 1.257 3.044.946.946 0 0 0 .669.46l2.825.405.426.426.404 2.825a.945.945 0 0 0 .461.669c.959.544 1.981.966 3.044 1.257.079.023.16.034.242.034.2.003.395-.062.554-.184l2.283-1.707h.6l2.283 1.707a.9.9 0 0 0 .795.15 13.03 13.03 0 0 0 3.044-1.257.945.945 0 0 0 .462-.669l.403-2.836c.139-.139.3-.289.415-.415l2.837-.404a.945.945 0 0 0 .669-.461 13.24 13.24 0 0 0 1.257-3.044.9.9 0 0 0-.15-.796Zm-12.315 2.49a5.074 5.074 0 1 1 0-10.147 5.074 5.074 0 0 1 0 10.148Z" fill="#FCFAFA"/></svg>